<mxfile host="app.diagrams.net" agent="Mozilla/5.0 (Windows NT 10.0; Win64; x64) AppleWebKit/537.36 (KHTML, like Gecko) Chrome/135.0.0.0 Safari/537.36" version="26.2.14">
  <diagram name="Seite-1" id="XS_rEo0GqfYoRquhPw0B">
    <mxGraphModel dx="1042" dy="2908" grid="1" gridSize="10" guides="1" tooltips="1" connect="1" arrows="1" fold="1" page="1" pageScale="1" pageWidth="827" pageHeight="1169" math="0" shadow="0">
      <root>
        <mxCell id="0" />
        <mxCell id="1" parent="0" />
        <mxCell id="YSlwHcMUuwkXeEXKE5cl-5" value="Class Diagram" style="html=1;shape=mxgraph.sysml.package;xSize=90;align=left;spacingLeft=10;overflow=fill;recursiveResize=0;" vertex="1" parent="1">
          <mxGeometry x="20" y="-2260" width="730" height="580" as="geometry" />
        </mxCell>
        <mxCell id="YSlwHcMUuwkXeEXKE5cl-9" value="Robo Car" style="swimlane;fontStyle=1;align=center;verticalAlign=top;childLayout=stackLayout;horizontal=1;startSize=26;horizontalStack=0;resizeParent=1;resizeParentMax=0;resizeLast=0;collapsible=1;marginBottom=0;whiteSpace=wrap;html=1;" vertex="1" parent="1">
          <mxGeometry x="320" y="-2240" width="160" height="240" as="geometry" />
        </mxCell>
        <mxCell id="YSlwHcMUuwkXeEXKE5cl-10" value="+leftIRPin: int&lt;div&gt;+rightIRPin: int&lt;/div&gt;&lt;div&gt;+trigPin: int&lt;/div&gt;&lt;div&gt;+echoPin: int&lt;/div&gt;&lt;div&gt;+distancePin: int&lt;/div&gt;" style="text;strokeColor=none;fillColor=none;align=left;verticalAlign=top;spacingLeft=4;spacingRight=4;overflow=hidden;rotatable=0;points=[[0,0.5],[1,0.5]];portConstraint=eastwest;whiteSpace=wrap;html=1;" vertex="1" parent="YSlwHcMUuwkXeEXKE5cl-9">
          <mxGeometry y="26" width="160" height="104" as="geometry" />
        </mxCell>
        <mxCell id="YSlwHcMUuwkXeEXKE5cl-11" value="" style="line;strokeWidth=1;fillColor=none;align=left;verticalAlign=middle;spacingTop=-1;spacingLeft=3;spacingRight=3;rotatable=0;labelPosition=right;points=[];portConstraint=eastwest;strokeColor=inherit;" vertex="1" parent="YSlwHcMUuwkXeEXKE5cl-9">
          <mxGeometry y="130" width="160" height="8" as="geometry" />
        </mxCell>
        <mxCell id="YSlwHcMUuwkXeEXKE5cl-12" value="+moveForward(): void&lt;div&gt;+stopMotors(): void&lt;/div&gt;&lt;div&gt;+moveBackwards(): void&lt;/div&gt;&lt;div&gt;+followLine(): void&lt;/div&gt;&lt;div&gt;+searchLine(): void&lt;/div&gt;" style="text;strokeColor=none;fillColor=none;align=left;verticalAlign=top;spacingLeft=4;spacingRight=4;overflow=hidden;rotatable=0;points=[[0,0.5],[1,0.5]];portConstraint=eastwest;whiteSpace=wrap;html=1;" vertex="1" parent="YSlwHcMUuwkXeEXKE5cl-9">
          <mxGeometry y="138" width="160" height="102" as="geometry" />
        </mxCell>
        <mxCell id="YSlwHcMUuwkXeEXKE5cl-13" value="Motor Control" style="swimlane;fontStyle=1;align=center;verticalAlign=top;childLayout=stackLayout;horizontal=1;startSize=26;horizontalStack=0;resizeParent=1;resizeParentMax=0;resizeLast=0;collapsible=1;marginBottom=0;whiteSpace=wrap;html=1;" vertex="1" parent="1">
          <mxGeometry x="110" y="-1900" width="160" height="200" as="geometry" />
        </mxCell>
        <mxCell id="YSlwHcMUuwkXeEXKE5cl-14" value="+mr1: int&lt;div&gt;+mr2: int&lt;/div&gt;&lt;div&gt;+ml1: int&lt;/div&gt;&lt;div&gt;+ml2: int&lt;br&gt;&lt;div&gt;&lt;br&gt;&lt;/div&gt;&lt;/div&gt;" style="text;strokeColor=none;fillColor=none;align=left;verticalAlign=top;spacingLeft=4;spacingRight=4;overflow=hidden;rotatable=0;points=[[0,0.5],[1,0.5]];portConstraint=eastwest;whiteSpace=wrap;html=1;" vertex="1" parent="YSlwHcMUuwkXeEXKE5cl-13">
          <mxGeometry y="26" width="160" height="74" as="geometry" />
        </mxCell>
        <mxCell id="YSlwHcMUuwkXeEXKE5cl-15" value="" style="line;strokeWidth=1;fillColor=none;align=left;verticalAlign=middle;spacingTop=-1;spacingLeft=3;spacingRight=3;rotatable=0;labelPosition=right;points=[];portConstraint=eastwest;strokeColor=inherit;" vertex="1" parent="YSlwHcMUuwkXeEXKE5cl-13">
          <mxGeometry y="100" width="160" height="8" as="geometry" />
        </mxCell>
        <mxCell id="YSlwHcMUuwkXeEXKE5cl-16" value="&lt;div&gt;+moveForward(): void&lt;/div&gt;&lt;div&gt;+stop(): void&lt;/div&gt;&lt;div&gt;+moveBackwards(): void&lt;/div&gt;" style="text;strokeColor=none;fillColor=none;align=left;verticalAlign=top;spacingLeft=4;spacingRight=4;overflow=hidden;rotatable=0;points=[[0,0.5],[1,0.5]];portConstraint=eastwest;whiteSpace=wrap;html=1;" vertex="1" parent="YSlwHcMUuwkXeEXKE5cl-13">
          <mxGeometry y="108" width="160" height="92" as="geometry" />
        </mxCell>
        <mxCell id="YSlwHcMUuwkXeEXKE5cl-17" value="IR Sensors" style="swimlane;fontStyle=1;align=center;verticalAlign=top;childLayout=stackLayout;horizontal=1;startSize=26;horizontalStack=0;resizeParent=1;resizeParentMax=0;resizeLast=0;collapsible=1;marginBottom=0;whiteSpace=wrap;html=1;" vertex="1" parent="1">
          <mxGeometry x="333.5" y="-1900" width="160" height="188" as="geometry" />
        </mxCell>
        <mxCell id="YSlwHcMUuwkXeEXKE5cl-18" value="+leftIRPin: int&lt;div&gt;+rightIRPin: int&lt;/div&gt;" style="text;strokeColor=none;fillColor=none;align=left;verticalAlign=top;spacingLeft=4;spacingRight=4;overflow=hidden;rotatable=0;points=[[0,0.5],[1,0.5]];portConstraint=eastwest;whiteSpace=wrap;html=1;" vertex="1" parent="YSlwHcMUuwkXeEXKE5cl-17">
          <mxGeometry y="26" width="160" height="54" as="geometry" />
        </mxCell>
        <mxCell id="YSlwHcMUuwkXeEXKE5cl-19" value="" style="line;strokeWidth=1;fillColor=none;align=left;verticalAlign=middle;spacingTop=-1;spacingLeft=3;spacingRight=3;rotatable=0;labelPosition=right;points=[];portConstraint=eastwest;strokeColor=inherit;" vertex="1" parent="YSlwHcMUuwkXeEXKE5cl-17">
          <mxGeometry y="80" width="160" height="8" as="geometry" />
        </mxCell>
        <mxCell id="YSlwHcMUuwkXeEXKE5cl-20" value="+readValue(): void" style="text;strokeColor=none;fillColor=none;align=left;verticalAlign=top;spacingLeft=4;spacingRight=4;overflow=hidden;rotatable=0;points=[[0,0.5],[1,0.5]];portConstraint=eastwest;whiteSpace=wrap;html=1;" vertex="1" parent="YSlwHcMUuwkXeEXKE5cl-17">
          <mxGeometry y="88" width="160" height="100" as="geometry" />
        </mxCell>
        <mxCell id="YSlwHcMUuwkXeEXKE5cl-25" value="Ultrasonic Sensor" style="swimlane;fontStyle=1;align=center;verticalAlign=top;childLayout=stackLayout;horizontal=1;startSize=26;horizontalStack=0;resizeParent=1;resizeParentMax=0;resizeLast=0;collapsible=1;marginBottom=0;whiteSpace=wrap;html=1;" vertex="1" parent="1">
          <mxGeometry x="550" y="-1900" width="180" height="200" as="geometry" />
        </mxCell>
        <mxCell id="YSlwHcMUuwkXeEXKE5cl-26" value="+trigPin: int&lt;div&gt;+echoPin: int&lt;/div&gt;&lt;div&gt;+distancePin: int&lt;/div&gt;" style="text;strokeColor=none;fillColor=none;align=left;verticalAlign=top;spacingLeft=4;spacingRight=4;overflow=hidden;rotatable=0;points=[[0,0.5],[1,0.5]];portConstraint=eastwest;whiteSpace=wrap;html=1;" vertex="1" parent="YSlwHcMUuwkXeEXKE5cl-25">
          <mxGeometry y="26" width="180" height="74" as="geometry" />
        </mxCell>
        <mxCell id="YSlwHcMUuwkXeEXKE5cl-27" value="" style="line;strokeWidth=1;fillColor=none;align=left;verticalAlign=middle;spacingTop=-1;spacingLeft=3;spacingRight=3;rotatable=0;labelPosition=right;points=[];portConstraint=eastwest;strokeColor=inherit;" vertex="1" parent="YSlwHcMUuwkXeEXKE5cl-25">
          <mxGeometry y="100" width="180" height="8" as="geometry" />
        </mxCell>
        <mxCell id="YSlwHcMUuwkXeEXKE5cl-28" value="+detectObstackle(): void" style="text;strokeColor=none;fillColor=none;align=left;verticalAlign=top;spacingLeft=4;spacingRight=4;overflow=hidden;rotatable=0;points=[[0,0.5],[1,0.5]];portConstraint=eastwest;whiteSpace=wrap;html=1;" vertex="1" parent="YSlwHcMUuwkXeEXKE5cl-25">
          <mxGeometry y="108" width="180" height="92" as="geometry" />
        </mxCell>
        <mxCell id="YSlwHcMUuwkXeEXKE5cl-29" value="" style="endArrow=block;endSize=16;endFill=0;html=1;rounded=0;exitX=0.5;exitY=0;exitDx=0;exitDy=0;entryX=0.049;entryY=0.982;entryDx=0;entryDy=0;entryPerimeter=0;" edge="1" parent="1" target="YSlwHcMUuwkXeEXKE5cl-12">
          <mxGeometry width="160" relative="1" as="geometry">
            <mxPoint x="193.5" y="-1900" as="sourcePoint" />
            <mxPoint x="493.5" y="-1960" as="targetPoint" />
          </mxGeometry>
        </mxCell>
        <mxCell id="YSlwHcMUuwkXeEXKE5cl-30" value="" style="endArrow=block;endSize=16;endFill=0;html=1;rounded=0;exitX=0.5;exitY=0;exitDx=0;exitDy=0;entryX=0.569;entryY=1.014;entryDx=0;entryDy=0;entryPerimeter=0;" edge="1" parent="1" source="YSlwHcMUuwkXeEXKE5cl-17" target="YSlwHcMUuwkXeEXKE5cl-12">
          <mxGeometry width="160" relative="1" as="geometry">
            <mxPoint x="330" y="-1960" as="sourcePoint" />
            <mxPoint x="490" y="-1960" as="targetPoint" />
          </mxGeometry>
        </mxCell>
        <mxCell id="YSlwHcMUuwkXeEXKE5cl-31" value="" style="endArrow=block;endSize=16;endFill=0;html=1;rounded=0;exitX=0.5;exitY=0;exitDx=0;exitDy=0;entryX=0.819;entryY=1.022;entryDx=0;entryDy=0;entryPerimeter=0;" edge="1" parent="1" source="YSlwHcMUuwkXeEXKE5cl-25" target="YSlwHcMUuwkXeEXKE5cl-12">
          <mxGeometry width="160" relative="1" as="geometry">
            <mxPoint x="330" y="-1960" as="sourcePoint" />
            <mxPoint x="490" y="-1960" as="targetPoint" />
          </mxGeometry>
        </mxCell>
      </root>
    </mxGraphModel>
  </diagram>
</mxfile>
